<?xml version="1.0" ?><svg id="Capa_1" style="enable-background:new 0 0 512.002 512.002;" version="1.1" viewBox="0 0 512.002 512.002" xml:space="preserve" xmlns="http://www.w3.org/2000/svg" xmlns:xlink="http://www.w3.org/1999/xlink"><g><path d="M276,50V30c0-11.002-8.998-19.998-20-19.998c-11.001,0-20,8.996-20,19.998v20H276z" style="fill:#986E62;"/><polygon points="296,50 276,50 236,50 215.999,50 133,130.582 51.519,209.69 10,250 502,250 460.48,209.69    379.002,130.582  " style="fill:#BF9A94;"/><path d="M502,250H10c0,10.001,15.458,30,25.998,30H116h99.997h80.001h99.998h80   C487.478,280,502,261.562,502,250z" style="fill:#986E62;"/><g><polygon points="116,309.999 116,280 35.998,280 35.998,309.999 45.998,309.999 105.998,309.999   " style="fill:#FF9D21;"/><polygon points="215.997,280 215.997,309.999 225.998,309.999 285.998,309.999 295.998,309.999     295.998,280   " style="fill:#FF9D21;"/><polygon points="395.996,280 395.996,309.999 405.998,309.999 465.996,309.999 475.996,309.999     475.996,280   " style="fill:#FF9D21;"/></g><g><rect height="122" style="fill:#FFDAAE;" width="59.998" x="406" y="310"/><rect height="122" style="fill:#FFDAAE;" width="60" x="226" y="310"/><rect height="122" style="fill:#FFDAAE;" width="60" x="45.998" y="310"/></g><g><polygon points="105.998,431.999 45.998,431.999 35.998,431.999 35.998,461.999 116,461.999 116,431.999       " style="fill:#FF9D21;"/><polygon points="215.997,431.999 215.997,461.999 295.998,461.999 295.998,431.999 285.998,431.999     225.998,431.999   " style="fill:#FF9D21;"/><polygon points="395.996,431.999 395.996,461.999 475.996,461.999 475.996,431.999 465.996,431.999     405.998,431.999   " style="fill:#FF9D21;"/></g><path d="M475.996,461.999h-80h-99.998h-80.001H116H35.998h-6.01c-10.982,0-19.988,8.998-19.988,19.999   v20.001h492.002v-20.001c0-11.001-9.008-19.999-20.01-19.999H475.996z" style="fill:#986E62;"/></g><g><path d="M485.996,452.275v-20.276c0-5.522-4.477-10-10-10v-102c5.523,0,10-4.478,10-10v-22.383   C499.838,281.243,512,263.354,512,250c0-0.024-0.004-0.047-0.004-0.071c-0.002-0.201-0.018-0.402-0.031-0.603   c-0.008-0.132-0.01-0.266-0.023-0.395c-0.02-0.173-0.052-0.344-0.08-0.516c-0.024-0.153-0.041-0.31-0.072-0.46   c-0.025-0.117-0.061-0.23-0.09-0.347c-0.127-0.517-0.283-1.022-0.487-1.505c-0.113-0.268-0.243-0.53-0.381-0.79   c-0.014-0.026-0.024-0.054-0.038-0.08c-0.096-0.177-0.207-0.346-0.314-0.517c-0.065-0.104-0.123-0.214-0.193-0.315   c-0.086-0.128-0.186-0.249-0.277-0.373c-0.105-0.14-0.205-0.282-0.316-0.416c-0.084-0.102-0.18-0.196-0.268-0.295   c-0.135-0.149-0.267-0.299-0.408-0.438c-0.018-0.018-0.033-0.037-0.051-0.054l-205.999-200C301.1,41.014,298.602,40,296,40h-10V30   c0-16.541-13.458-29.998-30-29.998S226,13.459,226,30v10h-10.001c-2.601,0-5.1,1.014-6.966,2.825l-206,200   c-0.018,0.017-0.031,0.036-0.049,0.054c-0.142,0.139-0.272,0.287-0.405,0.434c-0.091,0.101-0.187,0.196-0.273,0.3   c-0.107,0.129-0.203,0.267-0.305,0.401c-0.097,0.129-0.199,0.255-0.289,0.388c-0.059,0.085-0.106,0.177-0.162,0.264   c-0.293,0.464-0.555,0.942-0.764,1.439c-0.088,0.206-0.159,0.42-0.232,0.633c-0.031,0.092-0.072,0.182-0.101,0.275   c-0.057,0.182-0.098,0.369-0.144,0.556c-0.033,0.129-0.073,0.257-0.1,0.387c-0.031,0.148-0.049,0.3-0.072,0.449   c-0.028,0.176-0.062,0.351-0.08,0.527c-0.014,0.129-0.016,0.262-0.025,0.392c-0.014,0.202-0.029,0.403-0.03,0.605   C0.003,249.953,0,249.976,0,250c0,11.316,12.109,30.495,25.998,37.412v22.587c0,5.522,4.477,10,10,10v101.999   c-5.523,0-10,4.478-10,10v20.274C11.344,454.232,0,466.811,0,481.999V502c0,5.522,4.476,10,10,10h492.002c5.522,0,10-4.478,10-10   v-20.001C512.002,466.815,500.656,454.239,485.996,452.275z M305.998,451.999v-20.001c0-5.522-4.478-10-10-10V319.999   c5.522,0,10-4.478,10-10V290h79.998v19.999c0,5.522,4.477,10,10,10h0.002v101.999h-0.002c-5.523,0-10,4.478-10,10v20.001H305.998z    M126,451.999v-20.001c0-5.522-4.478-10-10-10h-0.002V319.999H116c5.522,0,10-4.478,10-10V290h79.997v19.999   c0,5.522,4.478,10,10,10h0.001v101.999h-0.001c-5.522,0-10,4.478-10,10v20.001H126z M106,299.999H45.998V290H106V299.999z    M95.998,319.999v101.999h-40V319.999H95.998z M45.998,441.999H106V452H45.998V441.999z M275.998,319.999v101.999h-40V319.999   H275.998z M285.998,299.999h-60.001V290h60.001V299.999z M225.997,441.999h60.001V452h-60.001L225.997,441.999L225.997,441.999z    M465.996,299.999h-60V290h60V299.999z M405.996,441.999h60V452h-60V441.999z M455.996,421.999h-39.998v-102h39.998   L455.996,421.999L455.996,421.999z M246,30c0-5.514,4.486-9.998,10.002-9.998c5.514,0,9.998,4.484,9.998,9.998v10h-20V30z    M220.055,60H236h40h15.944l143.88,139.689h-26.379c-5.522,0-10,4.478-10,10s4.478,10,10,10h46.979L477.344,240H34.655   l20.92-20.311h46.979c5.523,0,10-4.478,10-10s-4.477-10-10-10H76.176L220.055,60z M487.84,260c-0.659,0.97-1.395,1.95-2.205,2.919   c-4.477,5.351-8.427,7.081-9.639,7.081h-80h-99.998h-80.001H116H36.083c-1.191-0.2-5.208-2.485-9.771-8.161   c-0.5-0.622-0.967-1.236-1.402-1.839H487.84z M492.002,491.999H20v-10.001c0-5.514,4.48-9.999,9.988-9.999h6.01H116h99.997h80.001   h99.998h80h5.996c5.52,0,10.01,4.485,10.01,9.999L492.002,491.999L492.002,491.999z" style="fill:#000001;"/><path d="M235.998,160.002H246v20h-29.999c-5.522,0-10,4.478-10,10s4.478,10,10,10H246v9.686   c0,5.522,4.476,10,10,10c5.522,0,10-4.478,10-10v-9.686h10.003c16.54,0,29.997-13.458,29.997-30.001   c0-16.542-13.457-29.999-29.997-29.999H266v-20.001h30c5.523,0,10-4.478,10-10s-4.477-10-10-10h-30v-9.688c0-5.522-4.478-10-10-10   c-5.524,0-10,4.478-10,10v9.688h-10.002c-16.541,0-29.999,13.458-29.999,29.999C205.999,146.543,219.457,160.002,235.998,160.002z    M286,170.001c0,5.515-4.484,10.001-9.997,10.001H266v-20h10.003C281.516,160.002,286,164.488,286,170.001z M235.998,120.001H246   v20.001h-10.002c-5.514,0-9.999-4.486-9.999-10.002C225.999,124.487,230.484,120.001,235.998,120.001z" style="fill:#000001;"/><path d="M131.285,219.69h0.237c5.522,0,10-4.478,10-10s-4.477-10-10-10h-0.237c-5.523,0-10,4.478-10,10   S125.762,219.69,131.285,219.69z" style="fill:#000001;"/><path d="M380.48,219.69h0.236c5.522,0,10-4.478,10-10s-4.478-10-10-10h-0.236c-5.523,0-10,4.478-10,10   S374.957,219.69,380.48,219.69z" style="fill:#000001;"/></g><g/><g/><g/><g/><g/><g/><g/><g/><g/><g/><g/><g/><g/><g/><g/></svg>